<?xml version="1.0" encoding="UTF-8"?>
<svg width="64px" height="64px" viewBox="0 0 64 64" version="1.1" xmlns="http://www.w3.org/2000/svg" xmlns:xlink="http://www.w3.org/1999/xlink">
    <!-- Generator: Sketch 60 (88103) - https://sketch.com -->
    <title>access_guide_icon</title>
    <desc>Created with Sketch.</desc>
    <g id="确定" stroke="none" stroke-width="1" fill="none" fill-rule="evenodd">
        <g id="应用管理中心-应用信息" transform="translate(-212.000000, -1147.000000)">
            <g id="内容区" transform="translate(40.000000, 120.000000)">
                <g id="活动信息备份-3" transform="translate(40.000000, 933.000000)">
                    <g id="编组-3" transform="translate(56.000000, 80.000000)">
                        <g id="编组-4" transform="translate(76.000000, 14.000000)">
                            <g id="编组-5">
                                <g id="接入文档" transform="translate(12.000000, 11.000000)">
                                    <path d="M28,37 L28,37 L28,40 C28,41.1045695 27.1045695,42 26,42 L2,42 C0.8954305,42 0,41.1045695 0,40 L0,7 C0,5.8954305 0.8954305,5 2,5 L2,5 L14,5 L14,5" id="路径" stroke="#333333" stroke-width="2"></path>
                                    <path d="M29.125624,15 L8.87437597,15 C8.39050062,14.9962156 8,14.5496107 8,14 C8,13.4503893 8.39050062,13.0037844 8.87437597,13 L29.125624,13 C29.6094994,13.0037844 30,13.4503893 30,14 C30,14.5496107 29.6094994,14.9962156 29.125624,15 L29.125624,15 Z" id="路径" fill="#333333" fill-rule="nonzero"></path>
                                    <path d="M29.125862,29 L8.88019562,29 C8.394077,29 8,28.5522847 8,28 C8,27.4477153 8.394077,27 8.88019562,27 L29.125862,27 C29.6096052,27.0037824 30,27.4503773 30,27.9999763 C30,28.5495753 29.6096052,28.9961702 29.125862,28.9999526 L29.125862,29 Z" id="路径" fill="#333333" fill-rule="nonzero"></path>
                                    <path d="M32.1255627,22 L11.8744373,22 C11.390528,21.9962156 11,21.5496107 11,21 C11,20.4503893 11.390528,20.0037844 11.8744373,20 L32.1255627,20 C32.609472,20.0037844 33,20.4503893 33,21 C33,21.5496107 32.609472,21.9962156 32.1255627,22 L32.1255627,22 Z" id="路径" fill="#333333" fill-rule="nonzero"></path>
                                    <path d="M27,14 C26.9957538,15.0703749 27.5666103,16.0612668 28.4965603,16.5976858 C29.4265102,17.1341047 30.5734898,17.1341047 31.5034397,16.5976858 C32.4333897,16.0612668 33.0042462,15.0703749 33,14 C33.0042462,12.9296251 32.4333897,11.9387332 31.5034397,11.4023142 C30.5734898,10.8658953 29.4265102,10.8658953 28.4965603,11.4023142 C27.5666103,11.9387332 26.9957538,12.9296251 27,14 L27,14 Z" id="路径" fill="#105CFB" fill-rule="nonzero"></path>
                                    <path d="M27,28 C26.9957538,29.0703749 27.5666103,30.0612668 28.4965603,30.5976858 C29.4265102,31.1341047 30.5734898,31.1341047 31.5034397,30.5976858 C32.4333897,30.0612668 33.0042462,29.0703749 33,28 C33.0042462,26.9296251 32.4333897,25.9387332 31.5034397,25.4023142 C30.5734898,24.8658953 29.4265102,24.8658953 28.4965603,25.4023142 C27.5666103,25.9387332 26.9957538,26.9296251 27,28 L27,28 Z" id="路径" fill="#105CFB" fill-rule="nonzero"></path>
                                    <path d="M8,21 C8,22.0717968 8.57179674,23.0621778 9.5,23.5980762 C10.4282032,24.1339746 11.5717968,24.1339746 12.5,23.5980762 C13.4282033,23.0621778 14,22.0717968 14,21 C14,19.9282032 13.4282033,18.9378222 12.5,18.4019238 C11.5717968,17.8660254 10.4282032,17.8660254 9.5,18.4019238 C8.57179674,18.9378222 8,19.9282032 8,21 L8,21 Z" id="路径" fill="#105CFB" fill-rule="nonzero"></path>
                                    <path d="M14,10 L14,2 C14,0.8954305 14.8954305,0 16,0 L16,0 L39,0 C40.1045695,0 41,0.8954305 41,2 L41,35 C41,36.1045695 40.1045695,37 39,37 L16,37 C14.8954305,37 14,36.1045695 14,35 L14,31 L14,31" id="路径" stroke="#333333" stroke-width="2" stroke-linecap="round"></path>
                                </g>
                            </g>
                        </g>
                    </g>
                </g>
            </g>
        </g>
    </g>
</svg>