<?xml version="1.0" encoding="UTF-8"?>
<svg width="8px" height="8px" viewBox="0 0 8 8" version="1.1" xmlns="http://www.w3.org/2000/svg" xmlns:xlink="http://www.w3.org/1999/xlink">
    <!-- Generator: Sketch 54.1 (76490) - https://sketchapp.com -->
    <title>设计风格/操作图标/icon_close</title>
    <desc>Created with Sketch.</desc>
    <g id="B端" stroke="none" stroke-width="1" fill="none" fill-rule="evenodd">
        <g id="营销中心-知识付费SDK-完善相关信息" transform="translate(-1208.000000, -124.000000)">
            <g id="营销中心" transform="translate(204.000000, 84.000000)">
                <g id="带icon的警示" transform="translate(24.000000, 24.000000)">
                    <g id="组件/00通用/icon/icon_close" transform="translate(979.000000, 15.000000)">
                        <rect id="Rectangle-4" opacity="0.300000012" x="0" y="0" width="6.25" height="6.25"></rect>
                        <path d="M4.6875,4.6875 L4.6875,0.3125 C4.6875,0.139911016 4.82741102,-1.13594849e-12 5,-1.1359802e-12 C5.17258898,-1.1360119e-12 5.3125,0.139911016 5.3125,0.3125 L5.3125,4.6875 L9.6875,4.6875 C9.86008898,4.6875 10,4.82741102 10,5 C10,5.17258898 9.86008898,5.3125 9.6875,5.3125 L5.3125,5.3125 L5.3125,9.6875 C5.3125,9.86008898 5.17258898,10 5,10 C4.82741102,10 4.6875,9.86008898 4.6875,9.6875 L4.6875,5.3125 L0.3125,5.3125 C0.139911016,5.3125 2.11360547e-17,5.17258898 0,5 C-2.11360547e-17,4.82741102 0.139911016,4.6875 0.3125,4.6875 L4.6875,4.6875 Z" id="Combined-Shape" fill="#B2B2B2" fill-rule="evenodd" transform="translate(5.000000, 5.000000) rotate(45.000000) translate(-5.000000, -5.000000) "></path>
                    </g>
                </g>
            </g>
        </g>
    </g>
</svg>