<svg width="14" height="14" viewBox="0 0 14 14" fill="none" xmlns="http://www.w3.org/2000/svg">
<rect width="14" height="14" fill="white" fill-opacity="0.01"/>
<path fill-rule="evenodd" clip-rule="evenodd" d="M12.542 1.1665H1.45866C1.29758 1.1665 1.16699 1.30896 1.16699 1.48469V4.34832C1.16699 4.52405 1.29758 4.6665 1.45866 4.6665H12.542C12.7031 4.6665 12.8337 4.52405 12.8337 4.34832V1.48469C12.8337 1.30896 12.7031 1.1665 12.542 1.1665Z" stroke="#333333" stroke-width="1.33" stroke-linejoin="round"/>
<path fill-rule="evenodd" clip-rule="evenodd" d="M12.542 9.3335H1.45866C1.29758 9.3335 1.16699 9.47595 1.16699 9.65168V12.5153C1.16699 12.691 1.29758 12.8335 1.45866 12.8335H12.542C12.7031 12.8335 12.8337 12.691 12.8337 12.5153V9.65168C12.8337 9.47595 12.7031 9.3335 12.542 9.3335Z" stroke="#333333" stroke-width="1.33" stroke-linejoin="round"/>
<path d="M4.08301 4.6665V7.00226L9.91634 7.00485V9.33317" stroke="#333333" stroke-width="1.33" stroke-linecap="round" stroke-linejoin="round"/>
<path d="M5.25 11.0833H8.75" stroke="#333333" stroke-linecap="round" stroke-linejoin="round"/>
<path d="M5.25 2.91683H8.75" stroke="#333333" stroke-linecap="round" stroke-linejoin="round"/>
</svg>
