<?xml version="1.0" encoding="UTF-8"?>
<svg width="64px" height="64px" viewBox="0 0 64 64" version="1.1" xmlns="http://www.w3.org/2000/svg" xmlns:xlink="http://www.w3.org/1999/xlink">
    <!-- Generator: Sketch 60 (88103) - https://sketch.com -->
    <title>编组 4</title>
    <desc>Created with Sketch.</desc>
    <defs>
        <rect id="path-1" x="0" y="0" width="1360" height="1189"></rect>
        <filter x="-0.7%" y="-0.8%" width="101.3%" height="101.5%" filterUnits="objectBoundingBox" id="filter-2">
            <feOffset dx="0" dy="0" in="SourceAlpha" result="shadowOffsetOuter1"></feOffset>
            <feGaussianBlur stdDeviation="3" in="shadowOffsetOuter1" result="shadowBlurOuter1"></feGaussianBlur>
            <feColorMatrix values="0 0 0 0 0   0 0 0 0 0   0 0 0 0 0  0 0 0 0.05 0" type="matrix" in="shadowBlurOuter1"></feColorMatrix>
        </filter>
    </defs>
    <g id="确定" stroke="none" stroke-width="1" fill="none" fill-rule="evenodd">
        <g id="应用管理中心-应用信息" transform="translate(-932.000000, -1145.000000)">
            <g id="其他/背景色/底色" fill="#F7F8FA">
                <rect x="0" y="0" width="1440" height="1429"></rect>
            </g>
            <g id="内容区" transform="translate(40.000000, 120.000000)">
                <g id="矩形">
                    <use fill="black" fill-opacity="1" filter="url(#filter-2)" xlink:href="#path-1"></use>
                    <use fill="#FFFFFF" fill-rule="evenodd" xlink:href="#path-1"></use>
                </g>
                <g id="活动信息备份-3" transform="translate(40.000000, 933.000000)">
                    <rect id="矩形" stroke="#EEEEEE" fill="#FFFFFF" x="-0.5" y="-0.5" width="1281" height="233" rx="2"></rect>
                    <g id="编组-3备份-3" transform="translate(776.000000, 80.000000)">
                        <rect id="矩形" stroke="#F2F2F2" fill="#FFFFFF" x="0" y="0" width="216" height="128" rx="2"></rect>
                        <g id="编组-4" transform="translate(34.000000, 12.000000)">
                            <g id="灯泡" transform="translate(47.000000, 4.000000)">
                                <path d="M32.0539392,49.6363636 L21.4565366,49.6363636 C20.8851081,49.6363636 20.3916016,50.195122 20.3916016,50.9090909 C20.3916016,51.6230599 20.859134,52.1818182 21.4565366,52.1818182 L32.0539392,52.1818182 C32.6253678,52.1818182 33.1188743,51.6230599 33.1188743,50.9090909 C33.1188743,50.195122 32.6513418,49.6363636 32.0539392,49.6363636 Z M30.7117597,53.4545455 L22.7987162,53.4545455 C22.1900205,53.4545455 21.6643288,54.0133038 21.6643288,54.7272727 C21.6643288,55.4412417 22.1623526,56 22.7987162,56 L30.7117597,56 C31.3204553,56 31.846147,55.4412417 31.846147,54.7272727 C31.846147,54.0133038 31.3204553,53.4545455 30.7117597,53.4545455 Z" id="形状" fill="#333333" fill-rule="nonzero"></path>
                                <path d="M26.7002818,11.3986928 C18.2198579,11.3986928 11.3986928,18.1559233 11.3986928,26.5454545 C11.3986928,31.8108203 14.1329975,36.6187203 18.5439586,39.3624335 L19.1181055,39.7195653 L19.1181055,46.171123 C19.1181055,46.6996917 19.5694056,47.1467617 20.1144891,47.1467617 L33.3400564,47.1467617 C33.8851398,47.1467617 34.3364399,46.6996917 34.3364399,46.171123 L34.3364399,39.7483868 L34.9078834,39.390858 C39.3101437,36.6365434 42.0558526,31.8206304 42.0558742,26.5794395 C42.0058034,18.1719838 35.1684258,11.3986928 26.7002818,11.3986928 Z" id="路径" stroke="#333333" stroke-width="2.43374926" fill-rule="nonzero"></path>
                                <path d="M9.9556108,40.2978516 C10.4869496,39.8224432 11.2140447,39.8224432 11.6055575,40.2978516 C12.0530007,40.7452947 12.0530007,41.5003551 11.6055575,41.9477983 L11.6055575,41.9477983 L9.36834162,44.1850142 C8.92089844,44.6324574 8.16583807,44.6324574 7.71839489,44.1850142 C7.2709517,43.737571 7.2709517,42.9825107 7.71839489,42.5350675 L7.71839489,42.5350675 Z M40.9130859,40.2978516 C41.3605291,39.8504084 42.1155895,39.8504084 42.5630327,40.2978516 L42.5630327,40.2978516 L44.8002486,42.5350675 C45.2476918,42.9825107 45.2476918,43.737571 44.8002486,44.1850142 C44.3528054,44.6324574 43.597745,44.6324574 43.1503018,44.1850142 L43.1503018,44.1850142 L40.9130859,41.9477983 C40.4656428,41.5003551 40.4656428,40.7452947 40.9130859,40.2978516 Z M5.73286577,24.5254794 C6.37606534,24.5254794 6.87943892,25.028853 6.87943892,25.6720526 C6.87943892,26.3152521 6.34810014,26.8186257 5.73286577,26.8186257 L5.73286577,26.8186257 L1.17453835,26.8186257 C0.531338778,26.8186257 0.0279651989,26.3152521 0.0279651989,25.6720526 C0.0279651989,25.028853 0.559303977,24.5254794 1.17453835,24.5254794 L1.17453835,24.5254794 Z M51.4000355,24.5254794 C52.0152699,24.5254794 52.5466087,25.028853 52.5466087,25.6720526 C52.5466087,26.3152521 52.0152699,26.8186257 51.4000355,26.8186257 L51.4000355,26.8186257 L46.8417081,26.8186257 C46.1985085,26.8186257 45.6951349,26.3152521 45.6951349,25.6720526 C45.6951349,25.028853 46.2264737,24.5254794 46.8417081,24.5254794 L46.8417081,24.5254794 Z M43.1223366,7.18705611 C43.5697798,6.73961293 44.3248402,6.73961293 44.7722834,7.18705611 C45.2197266,7.63449929 45.2197266,8.38955966 44.7722834,8.83700284 L44.7722834,8.83700284 L42.5350675,11.0742188 C42.0876243,11.5216619 41.3325639,11.5216619 40.8851207,11.0742188 C40.4376776,10.6267756 40.4376776,9.8717152 40.8851207,9.42427202 L40.8851207,9.42427202 Z M7.77432528,7.18705611 C8.22176847,6.73961293 8.97682884,6.73961293 9.42427202,7.18705611 L9.42427202,7.18705611 L11.6614879,9.42427202 C12.1089311,9.8717152 12.1089311,10.6267756 11.6614879,11.0742188 C11.2140447,11.5216619 10.4589844,11.5216619 10.0115412,11.0742188 C10.0115412,11.0742188 7.80229048,8.83700284 7.77432528,8.83700284 C7.3268821,8.38955966 7.3268821,7.63449929 7.77432528,7.18705611 Z M26.2872869,0 C26.9304865,0 27.4338601,0.531338778 27.4338601,1.14657315 L27.4338601,1.14657315 L27.4338601,5.70490057 C27.4338601,6.34810014 26.9025213,6.85147372 26.2872869,6.85147372 C25.6720526,6.85147372 25.1407138,6.32013494 25.1407138,5.70490057 L25.1407138,5.70490057 L25.1407138,1.14657315 C25.1407138,0.50337358 25.6440874,0 26.2872869,0 Z" id="形状结合" fill="#6395FE" fill-rule="nonzero"></path>
                                <path d="M25.6645066,45.9286505 L25.6645066,36.9872683 L20.6358082,32.1840518 C20.2729124,31.7837838 20.2729124,31.158365 20.6358082,30.8081304 C20.9987039,30.4578959 21.6985743,30.4578959 22.0614701,30.8081304 L26.7272727,35.2611124 L31.3930754,30.8081304 C31.7559711,30.4578959 32.4558415,30.4578959 32.8187373,30.8081304 C33.181633,31.2083985 33.181633,31.8338173 32.8187373,32.1840518 L27.7900389,36.9872683 L27.7900389,45.9286505 L25.6645066,45.9286505 Z" id="路径" fill="#105CFB"></path>
                            </g>
                        </g>
                    </g>
                </g>
            </g>
        </g>
    </g>
</svg>