<svg width="14" height="14" viewBox="0 0 14 14" fill="none" xmlns="http://www.w3.org/2000/svg">
<path d="M14 0H0V14H14V0Z" fill="white" fill-opacity="0.01"/>
<path d="M5.5832 5.77772C6.76446 5.77772 7.72206 4.82012 7.72206 3.63886C7.72206 2.4576 6.76446 1.5 5.5832 1.5C4.40193 1.5 3.44434 2.4576 3.44434 3.63886C3.44434 4.82012 4.40193 5.77772 5.5832 5.77772Z" stroke="#333333" stroke-width="1.33333" stroke-linecap="round" stroke-linejoin="round"/>
<path d="M9.74121 1.80566C10.3623 2.17993 10.7778 2.86095 10.7778 3.63897C10.7778 4.417 10.3623 5.09801 9.74121 5.47228" stroke="#333333" stroke-width="1.33333" stroke-linecap="round" stroke-linejoin="round"/>
<path d="M1 12.1332V12.4999H10.1665V12.1332C10.1665 10.7642 10.1665 10.0797 9.90013 9.55685C9.66577 9.0969 9.29181 8.72294 8.83186 8.48858C8.30897 8.22217 7.62448 8.22217 6.25548 8.22217H4.91106C3.54207 8.22217 2.85757 8.22217 2.33467 8.48858C1.87473 8.72294 1.50078 9.0969 1.26643 9.55685C1 10.0797 1 10.7642 1 12.1332Z" stroke="#333333" stroke-width="1.33333" stroke-linecap="round" stroke-linejoin="round"/>
<path d="M13.2224 12.5001V12.1334C13.2224 10.7644 13.2224 10.0799 12.956 9.55704C12.7216 9.09709 12.3476 8.72313 11.8877 8.48877" stroke="#333333" stroke-width="1.33333" stroke-linecap="round" stroke-linejoin="round"/>
</svg>
